<svg width="32" height="32" viewBox="0 0 32 32" fill="none" xmlns="http://www.w3.org/2000/svg">
<path d="M18.4002 26.8L16.0002 29.2L13.6002 26.8H7.5942C6.95927 26.8 6.35034 26.5477 5.90138 26.0988C5.45242 25.6498 5.2002 25.0409 5.2002 24.406V7.59395C5.2002 6.27155 6.2718 5.19995 7.5942 5.19995H24.4062C25.7286 5.19995 26.8002 6.27155 26.8002 7.59395V24.406C26.8002 25.0409 26.548 25.6498 26.099 26.0988C25.65 26.5477 25.0411 26.8 24.4062 26.8H18.4002ZM9.2286 23.2H23.0166C22.2433 22.088 21.2124 21.1798 20.0119 20.5529C18.8114 19.926 17.4769 19.5991 16.1226 19.6C14.7682 19.5991 13.4338 19.926 12.2333 20.5529C11.0328 21.1798 10.0018 22.088 9.2286 23.2V23.2ZM16.0002 17.2C16.5517 17.2 17.0979 17.0913 17.6075 16.8802C18.117 16.6692 18.58 16.3598 18.97 15.9698C19.3601 15.5798 19.6694 15.1168 19.8805 14.6072C20.0916 14.0977 20.2002 13.5515 20.2002 13C20.2002 12.4484 20.0916 11.9022 19.8805 11.3927C19.6694 10.8831 19.3601 10.4201 18.97 10.0301C18.58 9.6401 18.117 9.33073 17.6075 9.11966C17.0979 8.90859 16.5517 8.79995 16.0002 8.79995C14.8863 8.79995 13.818 9.24245 13.0303 10.0301C12.2427 10.8178 11.8002 11.886 11.8002 13C11.8002 14.1139 12.2427 15.1821 13.0303 15.9698C13.818 16.7575 14.8863 17.2 16.0002 17.2V17.2Z" fill="#525866"/>
</svg>
