<svg width="32" height="32" viewBox="0 0 32 32" fill="none" xmlns="http://www.w3.org/2000/svg">
<path d="M24.4002 13.6H25.6002C25.9185 13.6 26.2237 13.7264 26.4487 13.9515C26.6738 14.1765 26.8002 14.4817 26.8002 14.8V26.8C26.8002 27.1183 26.6738 27.4235 26.4487 27.6485C26.2237 27.8736 25.9185 28 25.6002 28H6.4002C6.08194 28 5.77671 27.8736 5.55167 27.6485C5.32662 27.4235 5.2002 27.1183 5.2002 26.8V14.8C5.2002 14.4817 5.32662 14.1765 5.55167 13.9515C5.77671 13.7264 6.08194 13.6 6.4002 13.6H7.6002V12.4C7.6002 11.2969 7.81747 10.2046 8.23961 9.18546C8.66175 8.16632 9.28049 7.24032 10.0605 6.4603C10.8405 5.68029 11.7665 5.06155 12.7857 4.63941C13.8048 4.21727 14.8971 4 16.0002 4C17.1033 4 18.1956 4.21727 19.2147 4.63941C20.2339 5.06155 21.1599 5.68029 21.9399 6.4603C22.7199 7.24032 23.3386 8.16632 23.7608 9.18546C24.1829 10.2046 24.4002 11.2969 24.4002 12.4V13.6ZM22.0002 13.6V12.4C22.0002 10.8087 21.3681 9.28258 20.2428 8.15736C19.1176 7.03214 17.5915 6.4 16.0002 6.4C14.4089 6.4 12.8828 7.03214 11.7576 8.15736C10.6323 9.28258 10.0002 10.8087 10.0002 12.4V13.6H22.0002ZM14.8002 18.4V23.2H17.2002V18.4H14.8002Z" fill="#525866"/>
</svg>
